<svg xmlns="http://www.w3.org/2000/svg" version="1.1" xmlns:xlink="http://www.w3.org/1999/xlink" xmlns:svgjs="http://svgjs.com/svgjs" width="1000" height="1000"><rect width="1000" height="1000" rx="200" ry="200" fill="#ffffff"></rect><g transform="matrix(5.847953216374269,0,0,5.847953216374269,-0.5261370201557156,363.23602818275054)"><svg xmlns="http://www.w3.org/2000/svg" version="1.1" xmlns:xlink="http://www.w3.org/1999/xlink" xmlns:svgjs="http://svgjs.com/svgjs" width="171" height="47"><svg width="171" height="47" viewBox="0 0 171 47" fill="none" xmlns="http://www.w3.org/2000/svg">
<path d="M33.4141 17.8203C33.4141 21.8516 32.6953 25.2344 31.2578 27.9688C29.8359 30.6875 27.7422 32.6797 24.9766 33.9453L33.2266 43.1562H23.9219L17.6406 35.4688H17.1016C11.8516 35.4688 7.82031 33.9453 5.00781 30.8984C2.19531 27.8516 0.789062 23.4766 0.789062 17.7734C0.789062 12.0703 2.19531 7.71875 5.00781 4.71875C7.83594 1.70312 11.8828 0.195312 17.1484 0.195312C22.4141 0.195312 26.4375 1.71094 29.2188 4.74219C32.0156 7.77344 33.4141 12.1328 33.4141 17.8203ZM8.40625 17.8203C8.40625 21.6484 9.13281 24.5312 10.5859 26.4688C12.0391 28.4062 14.2109 29.375 17.1016 29.375C22.8984 29.375 25.7969 25.5234 25.7969 17.8203C25.7969 10.1016 22.9141 6.24219 17.1484 6.24219C14.2578 6.24219 12.0781 7.21875 10.6094 9.17188C9.14062 11.1094 8.40625 13.9922 8.40625 17.8203ZM74.3706 35H66.0972L61.4566 17C61.2847 16.3594 60.9878 15.0391 60.5659 13.0391C60.1597 11.0234 59.9253 9.67188 59.8628 8.98438C59.7691 9.82812 59.5347 11.1875 59.1597 13.0625C58.7847 14.9219 58.4956 16.25 58.2925 17.0469L53.6753 35H45.4253L36.6831 0.734375H43.8316L48.2144 19.4375C48.98 22.8906 49.5347 25.8828 49.8784 28.4141C49.9722 27.5234 50.1831 26.1484 50.5112 24.2891C50.855 22.4141 51.1753 20.9609 51.4722 19.9297L56.4644 0.734375H63.3316L68.3237 19.9297C68.5425 20.7891 68.8159 22.1016 69.1441 23.8672C69.4722 25.6328 69.7222 27.1484 69.8941 28.4141C70.0503 27.1953 70.3003 25.6797 70.6441 23.8672C70.9878 22.0391 71.3003 20.5625 71.5816 19.4375L75.9409 0.734375H83.0894L74.3706 35ZM107.616 35H87.8819V0.734375H107.616V6.6875H95.1475V14.2109H106.749V20.1641H95.1475V29H107.616V35ZM122.534 15.9453H124.878C127.174 15.9453 128.87 15.5625 129.963 14.7969C131.057 14.0312 131.604 12.8281 131.604 11.1875C131.604 9.5625 131.042 8.40625 129.917 7.71875C128.807 7.03125 127.081 6.6875 124.737 6.6875H122.534V15.9453ZM122.534 21.8516V35H115.268V0.734375H125.253C129.909 0.734375 133.354 1.58594 135.588 3.28906C137.823 4.97656 138.94 7.54688 138.94 11C138.94 13.0156 138.385 14.8125 137.276 16.3906C136.167 17.9531 134.596 19.1797 132.565 20.0703C137.721 27.7734 141.081 32.75 142.643 35H134.581L126.401 21.8516H122.534ZM143.123 8.79688H150.951L155.897 23.5391C156.318 24.8203 156.607 26.3359 156.764 28.0859H156.904C157.076 26.4766 157.412 24.9609 157.912 23.5391L162.764 8.79688H170.428L159.342 38.3516C158.326 41.0859 156.873 43.1328 154.982 44.4922C153.107 45.8516 150.912 46.5312 148.397 46.5312C147.162 46.5312 145.951 46.3984 144.764 46.1328V40.4609C145.623 40.6641 146.561 40.7656 147.576 40.7656C148.842 40.7656 149.943 40.375 150.881 39.5938C151.834 38.8281 152.576 37.6641 153.107 36.1016L153.529 34.8125L143.123 8.79688Z" fill="#848484"></path>
</svg></svg></g></svg>